<?xml version="1.0" encoding="utf-8"?>
<svg xmlns="http://www.w3.org/2000/svg" viewBox="12 -7.879 183.8438 48" width="183.844px" height="48px" xmlns:bx="https://boxy-svg.com" preserveAspectRatio="none"><defs/><g id="object-1" transform="matrix(1, 0, 0, 1, 0, 2.842170943040401e-14)"><path d="M 20.04 28.52 Q 16.84 28.52 15.16 26.7 Q 13.48 24.88 13.48 21.48 L 13.48 0.12 L 17.88 0.12 L 17.88 21.8 Q 17.88 23.24 18.46 23.88 Q 19.04 24.52 20.12 24.52 Q 21.2 24.52 21.78 23.88 Q 22.36 23.24 22.36 21.8 L 22.36 0.12 L 26.6 0.12 L 26.6 21.48 Q 26.6 24.88 24.92 26.7 Q 23.24 28.52 20.04 28.52 Z M 33.15 4.12 L 28.55 4.12 L 28.55 0.12 L 42.15 0.12 L 42.15 4.12 L 37.55 4.12 L 37.55 28.12 L 33.15 28.12 Z M 49.99 28.52 Q 46.79 28.52 45.15 26.7 Q 43.51 24.88 43.51 21.48 L 43.51 19.88 L 47.67 19.88 L 47.67 21.8 Q 47.67 24.52 49.95 24.52 Q 51.07 24.52 51.65 23.86 Q 52.23 23.2 52.23 21.72 Q 52.23 19.96 51.43 18.62 Q 50.63 17.28 48.47 15.4 Q 45.75 13 44.67 11.06 Q 43.59 9.12 43.59 6.68 Q 43.59 3.36 45.27 1.54 Q 46.95 -0.28 50.15 -0.28 Q 53.31 -0.28 54.93 1.54 Q 56.55 3.36 56.55 6.76 L 56.55 7.92 L 52.39 7.92 L 52.39 6.48 Q 52.39 5.04 51.83 4.38 Q 51.27 3.72 50.19 3.72 Q 47.99 3.72 47.99 6.4 Q 47.99 7.92 48.81 9.24 Q 49.63 10.56 51.79 12.44 Q 54.55 14.84 55.59 16.8 Q 56.63 18.76 56.63 21.4 Q 56.63 24.84 54.93 26.68 Q 53.23 28.52 49.99 28.52 Z M 62.43 0.12 L 68.39 0.12 L 72.95 28.12 L 68.55 28.12 L 67.75 22.56 L 67.75 22.64 L 62.75 22.64 L 61.95 28.12 L 57.87 28.12 Z M 67.23 18.84 L 65.27 5 L 65.19 5 L 63.27 18.84 Z M 72.78 0.12 L 77.22 0.12 L 80.1 21.84 L 80.18 21.84 L 83.06 0.12 L 87.1 0.12 L 82.86 28.12 L 77.02 28.12 Z M 95.62 0.12 L 102.34 0.12 Q 105.62 0.12 107.26 1.88 Q 108.9 3.64 108.9 7.04 L 108.9 21.2 Q 108.9 24.6 107.26 26.36 Q 105.62 28.12 102.34 28.12 L 95.62 28.12 Z M 102.26 24.12 Q 103.34 24.12 103.92 23.48 Q 104.5 22.84 104.5 21.4 L 104.5 6.84 Q 104.5 5.4 103.92 4.76 Q 103.34 4.12 102.26 4.12 L 100.02 4.12 L 100.02 24.12 Z M 111.87 0.12 L 116.27 0.12 L 116.27 11.52 L 120.99 11.52 L 120.99 0.12 L 125.39 0.12 L 125.39 28.12 L 120.99 28.12 L 120.99 15.52 L 116.27 15.52 L 116.27 28.12 L 111.87 28.12 Z M 132.06 0.12 L 138.02 0.12 L 142.58 28.12 L 138.18 28.12 L 137.38 22.56 L 137.38 22.64 L 132.38 22.64 L 131.58 28.12 L 127.5 28.12 Z M 136.86 18.84 L 134.9 5 L 134.82 5 L 132.9 18.84 Z M 144.7 0.12 L 149.1 0.12 L 149.1 11.92 L 154.7 0.12 L 159.1 0.12 L 153.86 10.4 L 159.18 28.12 L 154.58 28.12 L 150.86 15.64 L 149.1 19.2 L 149.1 28.12 L 144.7 28.12 Z M 164.66 0.12 L 170.62 0.12 L 175.18 28.12 L 170.78 28.12 L 169.98 22.56 L 169.98 22.64 L 164.98 22.64 L 164.18 28.12 L 160.1 28.12 Z M 169.46 18.84 L 167.5 5 L 167.42 5 L 165.5 18.84 Z M 177.3 0.12 L 181.7 0.12 L 181.7 24.12 L 188.94 24.12 L 188.94 28.12 L 177.3 28.12 Z" style="fill: rgb(51, 51, 51); text-wrap-mode: nowrap;"/></g></svg>